<svg class="animated" id="freepik_stories-bus-stop" xmlns="http://www.w3.org/2000/svg" viewBox="0 0 500 500" version="1.1" xmlns:xlink="http://www.w3.org/1999/xlink" xmlns:svgjs="http://svgjs.com/svgjs"><style>svg#freepik_stories-bus-stop:not(.animated) .animable {opacity: 0;}svg#freepik_stories-bus-stop.animated #freepik--background-simple--inject-107 {animation: 1s 1 forwards cubic-bezier(.36,-0.01,.5,1.38) fadeIn;animation-delay: 0s;}svg#freepik_stories-bus-stop.animated #freepik--Shadow--inject-107 {animation: 1s 1 forwards cubic-bezier(.36,-0.01,.5,1.38) slideDown;animation-delay: 0s;}svg#freepik_stories-bus-stop.animated #freepik--bus-stop--inject-107 {animation: 1s 1 forwards cubic-bezier(.36,-0.01,.5,1.38) slideDown,6s Infinite  linear shake;animation-delay: 0s,1s;}svg#freepik_stories-bus-stop.animated #freepik--Seat--inject-107 {animation: 1s 1 forwards cubic-bezier(.36,-0.01,.5,1.38) fadeIn;animation-delay: 0s;}svg#freepik_stories-bus-stop.animated #freepik--Character--inject-107 {animation: 1s 1 forwards cubic-bezier(.36,-0.01,.5,1.38) slideDown;animation-delay: 0s;}svg#freepik_stories-bus-stop.animated #freepik--Cup--inject-107 {animation: 1s 1 forwards cubic-bezier(.36,-0.01,.5,1.38) slideRight;animation-delay: 0s;}            @keyframes fadeIn {                0% {                    opacity: 0;                }                100% {                    opacity: 1;                }            }                    @keyframes slideDown {                0% {                    opacity: 0;                    transform: translateY(-30px);                }                100% {                    opacity: 1;                    transform: translateY(0);                }            }                    @keyframes shake {                10%, 90% {                    transform: translate3d(-1px, 0, 0);                  }                  20%, 80% {                    transform: translate3d(2px, 0, 0);                  }                  30%, 50%, 70% {                    transform: translate3d(-4px, 0, 0);                  }                  40%, 60% {                    transform: translate3d(4px, 0, 0);                  }            }                    @keyframes slideRight {                0% {                    opacity: 0;                    transform: translateX(30px);                }                100% {                    opacity: 1;                    transform: translateX(0);                }            }        </style><g id="freepik--background-simple--inject-107" class="animable" style="transform-origin: 249.998px 216.114px;"><g id="elau8oeun9r1d"><path d="M183.92,195.68c73.69-19.6,121-127.14,212.53-52.23,79.66,65.19-2.79,148.69-77.84,164.48-65.77,13.84-243.78,14.85-247.46-69.06C67.32,151.3,142.27,206.76,183.92,195.68Z" style="fill: rgb(64, 123, 255); opacity: 0.9; transform-origin: 249.998px 216.114px;" class="animable"></path></g><g id="elfch6yab22ni"><path d="M183.92,195.68c73.69-19.6,121-127.14,212.53-52.23,79.66,65.19-2.79,148.69-77.84,164.48-65.77,13.84-243.78,14.85-247.46-69.06C67.32,151.3,142.27,206.76,183.92,195.68Z" style="fill: rgb(255, 255, 255); opacity: 0.9; transform-origin: 249.998px 216.114px;" class="animable"></path></g></g><g id="freepik--Shadow--inject-107" class="animable" style="transform-origin: 250px 416.24px;"><ellipse cx="250" cy="416.24" rx="193.89" ry="11.32" style="fill: rgb(245, 245, 245); transform-origin: 250px 416.24px;" id="elau8haxkdkqa" class="animable"></ellipse></g><g id="freepik--bus-stop--inject-107" class="animable animator-active" style="transform-origin: 172.155px 247.155px;"><rect x="167.38" y="164.41" width="9.54" height="251.83" style="fill: rgb(224, 224, 224); transform-origin: 172.15px 290.325px;" id="el9sol07q8bx5" class="animable"></rect><rect x="167.38" y="164.41" width="9.54" height="22.84" style="fill: rgb(224, 224, 224); mix-blend-mode: multiply; transform-origin: 172.15px 175.83px;" id="elply6zlzkinh" class="animable"></rect><rect x="131.66" y="78.07" width="80.99" height="102.91" rx="11.11" style="fill: rgb(64, 123, 255); transform-origin: 172.155px 129.525px;" id="elorfcoccckjb" class="animable"></rect><g id="elv30rh53wek"><rect x="131.66" y="78.07" width="80.99" height="102.91" rx="11.11" style="fill: rgb(255, 255, 255); opacity: 0.7; transform-origin: 172.155px 129.525px;" class="animable"></rect></g><g id="elkhwjm27e8p"><rect x="124.85" y="93.19" width="94.59" height="72.68" rx="6.96" style="fill: rgb(64, 123, 255); transform-origin: 172.145px 129.53px; transform: rotate(90deg);" class="animable"></rect></g><path d="M151,132.34h8.14a4.43,4.43,0,0,1,3.12,1,3.26,3.26,0,0,1,1.09,2.5,3.15,3.15,0,0,1-.78,2.14,3.49,3.49,0,0,1-1.51.94,3.94,3.94,0,0,1,2.23,1.25,3.46,3.46,0,0,1,.71,2.23,3.86,3.86,0,0,1-.51,2,3.68,3.68,0,0,1-1.39,1.38,4.64,4.64,0,0,1-1.65.46c-1,.12-1.62.19-1.94.19H151Zm4.39,5.51h1.89a2.16,2.16,0,0,0,1.41-.35,1.25,1.25,0,0,0,.4-1,1.19,1.19,0,0,0-.4-1,2.1,2.1,0,0,0-1.38-.35H155.4Zm0,5.53h2.21a2.49,2.49,0,0,0,1.59-.4,1.37,1.37,0,0,0,.46-1.07,1.21,1.21,0,0,0-.46-1,2.48,2.48,0,0,0-1.6-.38h-2.2Z" style="fill: rgb(64, 123, 255); transform-origin: 157.501px 139.38px;" id="el5vqtzr6v4xa" class="animable"></path><path d="M174.93,132.34h4.34v8.37a7.08,7.08,0,0,1-.39,2.36,5.08,5.08,0,0,1-1.22,1.93,4.82,4.82,0,0,1-1.74,1.17,8.87,8.87,0,0,1-3,.47,20.37,20.37,0,0,1-2.24-.14,5.8,5.8,0,0,1-2-.58,4.82,4.82,0,0,1-1.49-1.21,4.47,4.47,0,0,1-.93-1.62,8.33,8.33,0,0,1-.4-2.38v-8.37h4.33v8.57a2.47,2.47,0,0,0,.64,1.8,2.74,2.74,0,0,0,3.53,0,2.44,2.44,0,0,0,.64-1.81Z" style="fill: rgb(64, 123, 255); transform-origin: 172.565px 139.491px;" id="el2bc9ybq6fc7" class="animable"></path><path d="M181.39,141.75l4.13-.26a3.09,3.09,0,0,0,.55,1.53,2.29,2.29,0,0,0,1.92.86,2.13,2.13,0,0,0,1.43-.44,1.26,1.26,0,0,0,0-2,5.56,5.56,0,0,0-2.22-.82,9.46,9.46,0,0,1-4.08-1.7,3.44,3.44,0,0,1-1.23-2.72,3.71,3.71,0,0,1,.63-2.05,4.14,4.14,0,0,1,1.89-1.51,8.77,8.77,0,0,1,3.46-.55,7,7,0,0,1,4.11,1,4.31,4.31,0,0,1,1.68,3.19l-4.09.24a2.16,2.16,0,0,0-.69-1.38,2.19,2.19,0,0,0-1.44-.44,1.69,1.69,0,0,0-1.14.33,1,1,0,0,0-.39.78.79.79,0,0,0,.32.6,3.46,3.46,0,0,0,1.46.52,18.18,18.18,0,0,1,4.08,1.24,4.28,4.28,0,0,1,1.79,1.56,3.91,3.91,0,0,1,.56,2.08,4.46,4.46,0,0,1-.74,2.5,4.73,4.73,0,0,1-2.1,1.73,8.46,8.46,0,0,1-3.38.59q-3.58,0-5-1.38A5.44,5.44,0,0,1,181.39,141.75Z" style="fill: rgb(64, 123, 255); transform-origin: 187.755px 139.354px;" id="elcvs4ecwkhwq" class="animable"></path><path d="M143.78,159.75l4.14-.25a3.09,3.09,0,0,0,.54,1.53,2.31,2.31,0,0,0,1.92.86,2.16,2.16,0,0,0,1.44-.44,1.32,1.32,0,0,0,.5-1,1.29,1.29,0,0,0-.48-1,5.56,5.56,0,0,0-2.23-.82,9.46,9.46,0,0,1-4.07-1.71,3.42,3.42,0,0,1-1.23-2.71,3.69,3.69,0,0,1,.63-2.05,4.14,4.14,0,0,1,1.89-1.51,8.75,8.75,0,0,1,3.46-.56,7.08,7.08,0,0,1,4.11,1,4.34,4.34,0,0,1,1.68,3.19l-4.1.24a2.16,2.16,0,0,0-.68-1.38,2.2,2.2,0,0,0-1.45-.44,1.78,1.78,0,0,0-1.14.32,1,1,0,0,0-.38.79.78.78,0,0,0,.31.6,3.58,3.58,0,0,0,1.46.52,18.48,18.48,0,0,1,4.09,1.24,4.34,4.34,0,0,1,1.79,1.56,4,4,0,0,1,.56,2.08,4.5,4.5,0,0,1-.75,2.5,4.71,4.71,0,0,1-2.09,1.73,8.52,8.52,0,0,1-3.39.59c-2.39,0-4-.46-5-1.38A5.46,5.46,0,0,1,143.78,159.75Z" style="fill: rgb(64, 123, 255); transform-origin: 150.16px 157.355px;" id="eldn06ckwrlvv" class="animable"></path><path d="M157.74,150.34H171v3.48h-4.43v10.59h-4.35V153.82h-4.43Z" style="fill: rgb(64, 123, 255); transform-origin: 164.37px 157.375px;" id="elapdrtg50eiq" class="animable"></path><path d="M171.7,157.39A6.66,6.66,0,0,1,179,150.1a7.35,7.35,0,0,1,5.41,1.89,7.1,7.1,0,0,1,1.9,5.28,8.69,8.69,0,0,1-.83,4,5.87,5.87,0,0,1-2.4,2.46,8,8,0,0,1-3.91.88,9.1,9.1,0,0,1-3.94-.76,5.81,5.81,0,0,1-2.52-2.4A7.9,7.9,0,0,1,171.7,157.39Zm4.34,0a4.74,4.74,0,0,0,.79,3.06,3,3,0,0,0,4.33,0,5.19,5.19,0,0,0,.76-3.27,4.31,4.31,0,0,0-.8-2.9,2.73,2.73,0,0,0-2.17-.91,2.63,2.63,0,0,0-2.11.93A4.71,4.71,0,0,0,176,157.4Z" style="fill: rgb(64, 123, 255); transform-origin: 178.995px 157.34px;" id="el4la1lozv8bc" class="animable"></path><path d="M188.59,150.34h7.22a4.93,4.93,0,0,1,3.54,1.13,4.21,4.21,0,0,1,1.17,3.19,4.32,4.32,0,0,1-1.28,3.33,5.53,5.53,0,0,1-3.91,1.2H193v5.22h-4.36Zm4.36,6H194a2.7,2.7,0,0,0,1.77-.44,1.42,1.42,0,0,0,.5-1.11,1.56,1.56,0,0,0-.44-1.13,2.32,2.32,0,0,0-1.66-.46H193Z" style="fill: rgb(64, 123, 255); transform-origin: 194.559px 157.368px;" id="elv53xhuuujs" class="animable"></path><path d="M197.34,95.3H154.5a1.36,1.36,0,0,0-1.31,1L151,103.33a3.61,3.61,0,0,1-2.75,2.47l-1.35.27a1.64,1.64,0,0,0-1.32,1.61v7.06A1.36,1.36,0,0,0,147,116.1h7.44a6.07,6.07,0,0,1,12.14,0h18.22a6.08,6.08,0,0,1,12.15,0h.42a1.36,1.36,0,0,0,1.37-1.36V96.66A1.37,1.37,0,0,0,197.34,95.3Zm-29.18,8.4a1.25,1.25,0,0,1-1.24,1.25h-4.68A1.26,1.26,0,0,1,161,103.7V99a1.25,1.25,0,0,1,1.25-1.24h4.68A1.25,1.25,0,0,1,168.16,99Zm8.76,0a1.25,1.25,0,0,1-1.25,1.25H171a1.25,1.25,0,0,1-1.25-1.25V99A1.25,1.25,0,0,1,171,97.78h4.67A1.25,1.25,0,0,1,176.92,99Zm8.76,0a1.25,1.25,0,0,1-1.25,1.25h-4.67a1.25,1.25,0,0,1-1.25-1.25V99a1.25,1.25,0,0,1,1.25-1.24h4.67A1.25,1.25,0,0,1,185.68,99Zm8.76,0a1.25,1.25,0,0,1-1.25,1.25h-4.68a1.26,1.26,0,0,1-1.25-1.25V99a1.25,1.25,0,0,1,1.25-1.24h4.68A1.25,1.25,0,0,1,194.44,99Z" style="fill: rgb(64, 123, 255); transform-origin: 172.16px 105.701px;" id="el1e3ltnfclkq" class="animable"></path><path d="M160.47,112.41a3.7,3.7,0,1,0,3.71,3.69A3.7,3.7,0,0,0,160.47,112.41Z" style="fill: rgb(64, 123, 255); transform-origin: 160.48px 116.11px;" id="el238kqxxs2at" class="animable"></path><path d="M190.85,112.41a3.7,3.7,0,1,0,3.7,3.69A3.71,3.71,0,0,0,190.85,112.41Z" style="fill: rgb(64, 123, 255); transform-origin: 190.85px 116.11px;" id="el7g2laeedr1" class="animable"></path><g id="eldlo88mp62um"><rect x="124.85" y="93.19" width="94.59" height="72.68" rx="6.96" style="fill: rgb(64, 123, 255); transform-origin: 172.145px 129.53px; transform: rotate(90deg);" class="animable"></rect></g><path d="M151,132.34h8.14a4.43,4.43,0,0,1,3.12,1,3.26,3.26,0,0,1,1.09,2.5,3.15,3.15,0,0,1-.78,2.14,3.49,3.49,0,0,1-1.51.94,3.94,3.94,0,0,1,2.23,1.25,3.46,3.46,0,0,1,.71,2.23,3.86,3.86,0,0,1-.51,2,3.68,3.68,0,0,1-1.39,1.38,4.64,4.64,0,0,1-1.65.46c-1,.12-1.62.19-1.94.19H151Zm4.39,5.51h1.89a2.16,2.16,0,0,0,1.41-.35,1.25,1.25,0,0,0,.4-1,1.19,1.19,0,0,0-.4-1,2.1,2.1,0,0,0-1.38-.35H155.4Zm0,5.53h2.21a2.49,2.49,0,0,0,1.59-.4,1.37,1.37,0,0,0,.46-1.07,1.21,1.21,0,0,0-.46-1,2.48,2.48,0,0,0-1.6-.38h-2.2Z" style="fill: rgb(255, 255, 255); transform-origin: 157.501px 139.38px;" id="ely3lkcgp8txt" class="animable"></path><path d="M174.93,132.34h4.34v8.37a7.08,7.08,0,0,1-.39,2.36,5.08,5.08,0,0,1-1.22,1.93,4.82,4.82,0,0,1-1.74,1.17,8.87,8.87,0,0,1-3,.47,20.37,20.37,0,0,1-2.24-.14,5.8,5.8,0,0,1-2-.58,4.82,4.82,0,0,1-1.49-1.21,4.47,4.47,0,0,1-.93-1.62,8.33,8.33,0,0,1-.4-2.38v-8.37h4.33v8.57a2.47,2.47,0,0,0,.64,1.8,2.74,2.74,0,0,0,3.53,0,2.44,2.44,0,0,0,.64-1.81Z" style="fill: rgb(255, 255, 255); transform-origin: 172.565px 139.491px;" id="elfm8q8sb1rat" class="animable"></path><path d="M181.39,141.75l4.13-.26a3.09,3.09,0,0,0,.55,1.53,2.29,2.29,0,0,0,1.92.86,2.13,2.13,0,0,0,1.43-.44,1.26,1.26,0,0,0,0-2,5.56,5.56,0,0,0-2.22-.82,9.46,9.46,0,0,1-4.08-1.7,3.44,3.44,0,0,1-1.23-2.72,3.71,3.71,0,0,1,.63-2.05,4.14,4.14,0,0,1,1.89-1.51,8.77,8.77,0,0,1,3.46-.55,7,7,0,0,1,4.11,1,4.31,4.31,0,0,1,1.68,3.19l-4.09.24a2.16,2.16,0,0,0-.69-1.38,2.19,2.19,0,0,0-1.44-.44,1.69,1.69,0,0,0-1.14.33,1,1,0,0,0-.39.78.79.79,0,0,0,.32.6,3.46,3.46,0,0,0,1.46.52,18.18,18.18,0,0,1,4.08,1.24,4.28,4.28,0,0,1,1.79,1.56,3.91,3.91,0,0,1,.56,2.08,4.46,4.46,0,0,1-.74,2.5,4.73,4.73,0,0,1-2.1,1.73,8.46,8.46,0,0,1-3.38.59q-3.58,0-5-1.38A5.44,5.44,0,0,1,181.39,141.75Z" style="fill: rgb(255, 255, 255); transform-origin: 187.755px 139.354px;" id="ely6bkvrltz2" class="animable"></path><path d="M143.78,159.75l4.14-.25a3.09,3.09,0,0,0,.54,1.53,2.31,2.31,0,0,0,1.92.86,2.16,2.16,0,0,0,1.44-.44,1.32,1.32,0,0,0,.5-1,1.29,1.29,0,0,0-.48-1,5.56,5.56,0,0,0-2.23-.82,9.46,9.46,0,0,1-4.07-1.71,3.42,3.42,0,0,1-1.23-2.71,3.69,3.69,0,0,1,.63-2.05,4.14,4.14,0,0,1,1.89-1.51,8.75,8.75,0,0,1,3.46-.56,7.08,7.08,0,0,1,4.11,1,4.34,4.34,0,0,1,1.68,3.19l-4.1.24a2.16,2.16,0,0,0-.68-1.38,2.2,2.2,0,0,0-1.45-.44,1.78,1.78,0,0,0-1.14.32,1,1,0,0,0-.38.79.78.78,0,0,0,.31.6,3.58,3.58,0,0,0,1.46.52,18.48,18.48,0,0,1,4.09,1.24,4.34,4.34,0,0,1,1.79,1.56,4,4,0,0,1,.56,2.08,4.5,4.5,0,0,1-.75,2.5,4.71,4.71,0,0,1-2.09,1.73,8.52,8.52,0,0,1-3.39.59c-2.39,0-4-.46-5-1.38A5.46,5.46,0,0,1,143.78,159.75Z" style="fill: rgb(255, 255, 255); transform-origin: 150.16px 157.355px;" id="elqnzigrnhf7" class="animable"></path><path d="M157.74,150.34H171v3.48h-4.43v10.59h-4.35V153.82h-4.43Z" style="fill: rgb(255, 255, 255); transform-origin: 164.37px 157.375px;" id="el1u8zowvv909j" class="animable"></path><path d="M171.7,157.39A6.66,6.66,0,0,1,179,150.1a7.35,7.35,0,0,1,5.41,1.89,7.1,7.1,0,0,1,1.9,5.28,8.69,8.69,0,0,1-.83,4,5.87,5.87,0,0,1-2.4,2.46,8,8,0,0,1-3.91.88,9.1,9.1,0,0,1-3.94-.76,5.81,5.81,0,0,1-2.52-2.4A7.9,7.9,0,0,1,171.7,157.39Zm4.34,0a4.74,4.74,0,0,0,.79,3.06,3,3,0,0,0,4.33,0,5.19,5.19,0,0,0,.76-3.27,4.31,4.31,0,0,0-.8-2.9,2.73,2.73,0,0,0-2.17-.91,2.63,2.63,0,0,0-2.11.93A4.71,4.71,0,0,0,176,157.4Z" style="fill: rgb(255, 255, 255); transform-origin: 178.995px 157.34px;" id="elnno6bxuloel" class="animable"></path><path d="M188.59,150.34h7.22a4.93,4.93,0,0,1,3.54,1.13,4.21,4.21,0,0,1,1.17,3.19,4.32,4.32,0,0,1-1.28,3.33,5.53,5.53,0,0,1-3.91,1.2H193v5.22h-4.36Zm4.36,6H194a2.7,2.7,0,0,0,1.77-.44,1.42,1.42,0,0,0,.5-1.11,1.56,1.56,0,0,0-.44-1.13,2.32,2.32,0,0,0-1.66-.46H193Z" style="fill: rgb(255, 255, 255); transform-origin: 194.559px 157.368px;" id="elzql7ijfci6e" class="animable"></path><path d="M197.34,95.3H154.5a1.36,1.36,0,0,0-1.31,1L151,103.33a3.61,3.61,0,0,1-2.75,2.47l-1.35.27a1.64,1.64,0,0,0-1.32,1.61v7.06A1.36,1.36,0,0,0,147,116.1h7.44a6.07,6.07,0,0,1,12.14,0h18.22a6.08,6.08,0,0,1,12.15,0h.42a1.36,1.36,0,0,0,1.37-1.36V96.66A1.37,1.37,0,0,0,197.34,95.3Zm-29.18,8.4a1.25,1.25,0,0,1-1.24,1.25h-4.68A1.26,1.26,0,0,1,161,103.7V99a1.25,1.25,0,0,1,1.25-1.24h4.68A1.25,1.25,0,0,1,168.16,99Zm8.76,0a1.25,1.25,0,0,1-1.25,1.25H171a1.25,1.25,0,0,1-1.25-1.25V99A1.25,1.25,0,0,1,171,97.78h4.67A1.25,1.25,0,0,1,176.92,99Zm8.76,0a1.25,1.25,0,0,1-1.25,1.25h-4.67a1.25,1.25,0,0,1-1.25-1.25V99a1.25,1.25,0,0,1,1.25-1.24h4.67A1.25,1.25,0,0,1,185.68,99Zm8.76,0a1.25,1.25,0,0,1-1.25,1.25h-4.68a1.26,1.26,0,0,1-1.25-1.25V99a1.25,1.25,0,0,1,1.25-1.24h4.68A1.25,1.25,0,0,1,194.44,99Z" style="fill: rgb(255, 255, 255); transform-origin: 172.16px 105.701px;" id="elojmf0dq1kl9" class="animable"></path><path d="M160.47,112.41a3.7,3.7,0,1,0,3.71,3.69A3.7,3.7,0,0,0,160.47,112.41Z" style="fill: rgb(255, 255, 255); transform-origin: 160.48px 116.11px;" id="elt9ic1mbw5yq" class="animable"></path><path d="M190.85,112.41a3.7,3.7,0,1,0,3.7,3.69A3.71,3.71,0,0,0,190.85,112.41Z" style="fill: rgb(255, 255, 255); transform-origin: 190.85px 116.11px;" id="el6kec0g78tec" class="animable"></path></g><g id="freepik--Seat--inject-107" class="animable" style="transform-origin: 250px 351.62px;"><polygon points="345.51 353.21 344.69 359.03 340.24 416.24 334.96 416.24 339.4 359.03 340.22 353.21 345.51 353.21" style="fill: rgb(224, 224, 224); transform-origin: 340.235px 384.725px;" id="elewecsco004j" class="animable"></polygon><polygon points="372.2 353.21 373.02 359.03 377.46 416.24 382.74 416.24 378.3 359.03 377.48 353.21 372.2 353.21" style="fill: rgb(224, 224, 224); transform-origin: 377.47px 384.725px;" id="el5n33xzkvhie" class="animable"></polygon><polygon points="119.1 353.21 118.27 359.03 113.83 416.24 108.56 416.24 112.99 359.03 113.82 353.21 119.1 353.21" style="fill: rgb(224, 224, 224); transform-origin: 113.83px 384.725px;" id="elweompffocsg" class="animable"></polygon><polygon points="145.78 353.21 146.6 359.03 151.06 416.24 156.34 416.24 151.9 359.03 151.07 353.21 145.78 353.21" style="fill: rgb(224, 224, 224); transform-origin: 151.06px 384.725px;" id="el2nnl6zsmt43" class="animable"></polygon><polygon points="152.95 295.09 144.71 353.21 143.89 359.03 138.61 359.03 139.43 353.21 147.67 295.09 152.95 295.09" style="fill: rgb(224, 224, 224); transform-origin: 145.78px 327.06px;" id="el1dnls4ae2ey" class="animable"></polygon><polygon points="379.35 295.09 371.11 353.21 370.29 359.03 365.01 359.03 365.83 353.21 374.07 295.09 379.35 295.09" style="fill: rgb(224, 224, 224); transform-origin: 372.18px 327.06px;" id="elyz2vt70c909" class="animable"></polygon><polygon points="380.21 343.58 138.23 343.58 142.73 327.4 384.7 327.4 380.21 343.58" style="fill: rgb(64, 123, 255); transform-origin: 261.465px 335.49px;" id="elc6msak7si3" class="animable"></polygon><polygon points="374.69 343.58 132.71 343.58 137.2 327.4 379.18 327.4 374.69 343.58" style="fill: rgb(64, 123, 255); transform-origin: 255.945px 335.49px;" id="eluogm435ylzb" class="animable"></polygon><g id="el672m73ioqz7"><polygon points="380.21 343.58 138.23 343.58 142.73 327.4 384.7 327.4 380.21 343.58" style="opacity: 0.1; transform-origin: 261.465px 335.49px;" class="animable"></polygon></g><polygon points="386.95 303.18 144.97 303.18 149.47 287 391.44 287 386.95 303.18" style="fill: rgb(64, 123, 255); transform-origin: 268.205px 295.09px;" id="elnji6a9xerxb" class="animable"></polygon><g id="elmamj1dccjh"><polygon points="386.95 303.18 144.97 303.18 149.47 287 391.44 287 386.95 303.18" style="opacity: 0.1; transform-origin: 268.205px 295.09px;" class="animable"></polygon></g><polygon points="381.43 303.18 139.45 303.18 143.94 287 385.92 287 381.43 303.18" style="fill: rgb(255, 255, 255); transform-origin: 262.685px 295.09px;" id="elfrbyxz74elk" class="animable"></polygon><polygon points="381.43 303.18 139.45 303.18 143.94 287 385.92 287 381.43 303.18" style="fill: rgb(64, 123, 255); transform-origin: 262.685px 295.09px;" id="eldljg339rs6i" class="animable"></polygon><g id="elfsciugbxweo"><polygon points="381.43 303.18 139.45 303.18 143.94 287 385.92 287 381.43 303.18" style="fill: rgb(255, 255, 255); opacity: 0.3; transform-origin: 262.685px 295.09px;" class="animable"></polygon></g><polygon points="383.58 323.37 141.6 323.37 146.1 307.18 388.07 307.18 383.58 323.37" style="fill: rgb(64, 123, 255); transform-origin: 264.835px 315.275px;" id="elzcd3fmw7ijh" class="animable"></polygon><polygon points="378.06 323.37 136.08 323.37 140.57 307.18 382.55 307.18 378.06 323.37" style="fill: rgb(64, 123, 255); transform-origin: 259.315px 315.275px;" id="elbkw2r1jcdiq" class="animable"></polygon><g id="el9k29pkk277c"><polygon points="383.58 323.37 141.6 323.37 146.1 307.18 388.07 307.18 383.58 323.37" style="opacity: 0.1; transform-origin: 264.835px 315.275px;" class="animable"></polygon></g><polygon points="378.06 323.37 136.08 323.37 140.57 307.18 382.55 307.18 378.06 323.37" style="fill: rgb(64, 123, 255); transform-origin: 259.315px 315.275px;" id="elx3jbwdp6a6a" class="animable"></polygon><g id="el0xtgywn9btai"><polygon points="378.06 323.37 136.08 323.37 140.57 307.18 382.55 307.18 378.06 323.37" style="fill: rgb(255, 255, 255); opacity: 0.3; transform-origin: 259.315px 315.275px;" class="animable"></polygon></g><polygon points="374.69 343.58 132.71 343.58 137.2 327.4 379.18 327.4 374.69 343.58" style="fill: rgb(64, 123, 255); transform-origin: 255.945px 335.49px;" id="elwd1nznnp9cm" class="animable"></polygon><g id="elb66eeu71nff"><polygon points="374.69 343.58 132.71 343.58 137.2 327.4 379.18 327.4 374.69 343.58" style="fill: rgb(255, 255, 255); opacity: 0.3; transform-origin: 255.945px 335.49px;" class="animable"></polygon></g><rect x="110.7" y="353.21" width="240.91" height="5.82" style="fill: rgb(64, 123, 255); transform-origin: 231.155px 356.12px;" id="eloc5b3cfgq49" class="animable"></rect><rect x="110.7" y="353.21" width="240.91" height="5.82" style="fill: rgb(64, 123, 255); transform-origin: 231.155px 356.12px;" id="ellb2r5dwaftm" class="animable"></rect><g id="elxv6q2t1yx6o"><rect x="110.7" y="353.21" width="240.91" height="5.82" style="fill: rgb(255, 255, 255); opacity: 0.3; transform-origin: 231.155px 356.12px;" class="animable"></rect></g><rect x="351.6" y="353.21" width="33.11" height="5.82" style="fill: rgb(64, 123, 255); transform-origin: 368.155px 356.12px;" id="el7esq1uujac" class="animable"></rect><g id="el53b6xc3s0jj"><rect x="351.6" y="353.21" width="33.11" height="5.82" style="opacity: 0.1; transform-origin: 368.155px 356.12px;" class="animable"></rect></g></g><g id="freepik--Character--inject-107" class="animable" style="transform-origin: 261.736px 317.79px;"><path d="M199.52,415.64a2.13,2.13,0,0,1-1.39-.38,1,1,0,0,1-.31-.92.58.58,0,0,1,.33-.49c.83-.4,3.08,1,3.33,1.19a.19.19,0,0,1,0,.34A8.82,8.82,0,0,1,199.52,415.64Zm-1-1.5a.6.6,0,0,0-.21,0,.24.24,0,0,0-.13.2.66.66,0,0,0,.19.61,3.46,3.46,0,0,0,2.53.13A6.41,6.41,0,0,0,198.52,414.14Z" style="fill: rgb(64, 123, 255); transform-origin: 199.694px 414.713px;" id="el8d3rrmzrpa9" class="animable"></path><path d="M201.38,415.38a.15.15,0,0,1-.09,0c-.71-.4-2.07-2-1.91-2.79a.58.58,0,0,1,.57-.48.91.91,0,0,1,.74.23c.81.7.87,2.79.88,2.88a.19.19,0,0,1-.09.16A.16.16,0,0,1,201.38,415.38Zm-1.31-2.93H200c-.23,0-.25.13-.26.18-.09.47.74,1.64,1.44,2.19a4,4,0,0,0-.73-2.23A.55.55,0,0,0,200.07,412.45Z" style="fill: rgb(64, 123, 255); transform-origin: 200.469px 413.745px;" id="elk1zq0r8e91" class="animable"></path><polygon points="202.4 418.64 209.63 418.64 210.54 401.91 203.31 401.91 202.4 418.64" style="fill: rgb(228, 137, 123); transform-origin: 206.47px 410.275px;" id="elaeke4bwktfw" class="animable"></polygon><path d="M202,414.36h8.12a.6.6,0,0,1,.59.5l1.09,6.42a1.13,1.13,0,0,1-1.12,1.29c-2.84-.05-4.2-.22-7.78-.22-2.19,0-9.45.23-12.48.23s-3.28-3-2-3.27c5.63-1.22,10.53-2.9,12.4-4.5A1.84,1.84,0,0,1,202,414.36Z" style="fill: rgb(38, 50, 56); transform-origin: 199.751px 418.47px;" id="elrqz7fpa5amm" class="animable"></path><path d="M271.88,275.6c-2.53,5.37-5.17,10.64-7.91,15.89s-5.56,10.45-8.56,15.62l-1.14,1.94-.29.49-.44.69c-.31.49-.6.82-.91,1.24a30.84,30.84,0,0,1-3.61,3.68,81,81,0,0,1-7.36,5.68,142,142,0,0,1-15.48,9.23l-3-4.55c4.46-3.73,9-7.5,13.25-11.31,2.12-1.9,4.21-3.85,6-5.8a27.84,27.84,0,0,0,2.34-2.83c.11-.2.29-.43.34-.57l.38-.74,1-1.94c5.16-10.4,10.2-21.06,15.48-31.51Z" style="fill: rgb(228, 137, 123); transform-origin: 247.53px 300.435px;" id="elukr62kiyz8g" class="animable"></path><path d="M274.9,270.36c2.11,6.47-11.22,25.51-11.22,25.51L249.63,288a93.62,93.62,0,0,1,9.23-16.92C264.37,263.48,272.6,263.27,274.9,270.36Z" style="fill: rgb(64, 123, 255); transform-origin: 262.378px 280.538px;" id="eljdow5hpxfuc" class="animable"></path><path d="M223.45,325.36l-6.73,3.89,4.87,7.16s5.21-2.63,5.76-8Z" style="fill: rgb(228, 137, 123); transform-origin: 222.035px 330.885px;" id="el28mcx539og7" class="animable"></path><polygon points="212.43 338.05 217.94 337.5 221.59 336.41 216.72 329.25 212.43 338.05" style="fill: rgb(228, 137, 123); transform-origin: 217.01px 333.65px;" id="elsm5c225gsvh" class="animable"></polygon><polygon points="203.31 401.91 210.54 401.91 210.06 410.54 202.83 410.54 203.31 401.91" style="fill: rgb(206, 111, 100); transform-origin: 206.685px 406.225px;" id="elgxb871z8d5p" class="animable"></polygon><polygon points="268.98 418.64 261.75 418.64 256.47 401.91 263.7 401.91 268.98 418.64" style="fill: rgb(228, 137, 123); transform-origin: 262.725px 410.275px;" id="el7a0twntsc9" class="animable"></polygon><path d="M260.4,414.36h8.12a.59.59,0,0,1,.59.5l1.1,6.42a1.14,1.14,0,0,1-1.13,1.29c-2.83-.05-4.2-.22-7.77-.22-2.2,0-9.45.23-12.49.23s-3.27-3-2-3.27c5.63-1.22,10.53-2.9,12.39-4.5A1.86,1.86,0,0,1,260.4,414.36Z" style="fill: rgb(38, 50, 56); transform-origin: 258.156px 418.47px;" id="elto5p9zdchud" class="animable"></path><polygon points="263.7 401.91 256.47 401.91 259.2 410.54 266.43 410.54 263.7 401.91" style="fill: rgb(206, 111, 100); transform-origin: 261.45px 406.225px;" id="el63g0xduhoaw" class="animable"></polygon><path d="M258,415.64a2.16,2.16,0,0,1-1.4-.38,1,1,0,0,1-.31-.92.59.59,0,0,1,.33-.49c.84-.4,3.09,1,3.34,1.19a.2.2,0,0,1,.08.19.19.19,0,0,1-.14.15A8.72,8.72,0,0,1,258,415.64Zm-1-1.5a.67.67,0,0,0-.22,0,.22.22,0,0,0-.12.2.66.66,0,0,0,.19.61,3.44,3.44,0,0,0,2.52.13A6.38,6.38,0,0,0,257,414.14Z" style="fill: rgb(64, 123, 255); transform-origin: 258.158px 414.712px;" id="elwjs2nbowunk" class="animable"></path><path d="M259.82,415.38a.15.15,0,0,1-.09,0c-.71-.4-2.08-2-1.92-2.79a.6.6,0,0,1,.58-.48.93.93,0,0,1,.74.23c.8.7.87,2.79.87,2.88a.19.19,0,0,1-.09.16A.15.15,0,0,1,259.82,415.38Zm-1.31-2.93h-.08c-.22,0-.25.13-.26.18-.09.47.75,1.64,1.44,2.19a3.93,3.93,0,0,0-.72-2.23A.57.57,0,0,0,258.51,412.45Z" style="fill: rgb(64, 123, 255); transform-origin: 258.899px 413.745px;" id="elg2yr8lszat4" class="animable"></path><path d="M305.1,267.77c1.35.27,2.49.55,3.7.88s2.37.67,3.55,1q3.52,1.09,7,2.49c2.29.92,4.55,1.95,6.78,3.11,1.12.56,2.22,1.18,3.31,1.81.54.32,1.08.67,1.62,1l.81.51c.05,0,.48.31.76.52a10.68,10.68,0,0,1,.88.78,8.18,8.18,0,0,1,2,3.75,10.12,10.12,0,0,1,.24,3.14,17.86,17.86,0,0,1-1,4.58,39.56,39.56,0,0,1-3.36,7,76.84,76.84,0,0,1-8.64,11.81l-4.44-3.12c2.06-4,4.09-8.24,5.75-12.32a38.12,38.12,0,0,0,1.94-6,8.65,8.65,0,0,0,.25-2.33c0-.26-.09-.41-.1-.34a1.25,1.25,0,0,0,.37.71,1,1,0,0,0,.21.2c0,.05.23.16,0,.05l-.72-.36c-.48-.24-1-.5-1.44-.72-1-.45-2-.92-3-1.34-2-.87-4.07-1.65-6.16-2.39s-4.2-1.42-6.34-2.06c-1.07-.32-2.14-.64-3.21-.93l-3.12-.82Z" style="fill: rgb(228, 137, 123); transform-origin: 319.261px 288.96px;" id="el761wxnhd8qx" class="animable"></path><path d="M317.56,307.3l-4.38,5.82,9,.62s3-5.87-.17-7.19Z" style="fill: rgb(228, 137, 123); transform-origin: 318.322px 310.145px;" id="elmya36avsq5" class="animable"></path><polygon points="313.69 321.27 321.17 321.42 322.21 313.74 313.18 313.12 313.69 321.27" style="fill: rgb(228, 137, 123); transform-origin: 317.695px 317.27px;" id="eltmahhb8wws" class="animable"></polygon><path d="M262.92,327.89s-50-1.72-56.68,18.17c-7.33,21.77-5.8,62.11-5.8,62.11H213s4.83-28.79,8.14-43.39c3.44-15.16,52.26-8.27,58.46-13.81,4.95-4.42,7.45-11.9,8.11-23.08Z" style="fill: rgb(64, 123, 255); transform-origin: 244.009px 368.011px;" id="el24mm3wp5dlf" class="animable"></path><g id="elnvva6osemep"><path d="M262.92,327.89s-50-1.72-56.68,18.17c-7.33,21.77-5.8,62.11-5.8,62.11H213s4.83-28.79,8.14-43.39c3.44-15.16,52.26-8.27,58.46-13.81,4.95-4.42,7.45-11.9,8.11-23.08Z" style="opacity: 0.7; transform-origin: 244.009px 368.011px;" class="animable"></path></g><path d="M276.63,327.89S227.56,330.41,231,351.1c3.76,22.66,24.92,57.07,24.92,57.07h12.63s-8.62-33.08-12.61-47.5c-2.75-10,31.33-4.16,37.53-9.7,4.95-4.42,7.45-11.9,8.11-23.08Z" style="fill: rgb(64, 123, 255); transform-origin: 266.204px 368.03px;" id="elido40cqag2h" class="animable"></path><g id="elmm6t161hab"><path d="M276.63,327.89S227.56,330.41,231,351.1c3.76,22.66,24.92,57.07,24.92,57.07h12.63s-8.62-33.08-12.61-47.5c-2.75-10,31.33-4.16,37.53-9.7,4.95-4.42,7.45-11.9,8.11-23.08Z" style="opacity: 0.6; transform-origin: 266.204px 368.03px;" class="animable"></path></g><polygon points="213.81 408.47 199.6 408.47 199.21 403.97 214.73 404.37 213.81 408.47" style="fill: rgb(64, 123, 255); transform-origin: 206.97px 406.22px;" id="el7mplkh2l7k" class="animable"></polygon><polygon points="269.3 408.47 255.09 408.47 252.33 403.97 269.21 403.97 269.3 408.47" style="fill: rgb(64, 123, 255); transform-origin: 260.815px 406.22px;" id="eluvrrrnedg7f" class="animable"></polygon><path d="M275.08,271.18c-2.77-1.34-6-.22-9.47,5.12s-6.5,14.27-6.86,16.82l4.93,2.75S276,278.29,275.08,271.18Z" style="fill: rgb(64, 123, 255); transform-origin: 266.94px 283.267px;" id="elmj3kv8vocp" class="animable"></path><g id="elz4q86wa1fh"><path d="M275.08,271.18c-2.77-1.34-6-.22-9.47,5.12s-6.5,14.27-6.86,16.82l4.93,2.75S276,278.29,275.08,271.18Z" style="opacity: 0.1; transform-origin: 266.94px 283.267px;" class="animable"></path></g><path d="M307.09,265c-.24.93-.47,1.86-.68,2.79,0,0,0,.05,0,.08a168.21,168.21,0,0,0-3.34,20c-2.11,19.32-1.06,35.69-1.47,40H262.92c-6-40.65,3.66-62.47,3.66-62.47s3.23-.88,7.33-1.52c1.24-.2,2.56-.37,3.89-.49a140.62,140.62,0,0,1,16.43,0c1.18.06,2.37.15,3.52.26C302.75,264.16,307.09,265,307.09,265Z" style="fill: rgb(64, 123, 255); transform-origin: 284.023px 295.51px;" id="el8w9eext5rwg" class="animable"></path><path d="M297.75,263.67l-1.09,1.5c-.21.29-5.23,7.05-15.8,8.95l-.94.17-.87-.41c-3.33-1.57-5.23-3.68-5.64-6.26a6.64,6.64,0,0,1,.5-3.72c1.24-.2,2.56-.37,3.89-.49a140.62,140.62,0,0,1,16.43,0C295.41,263.47,296.6,263.56,297.75,263.67Z" style="fill: rgb(255, 255, 255); transform-origin: 285.541px 268.73px;" id="el2gn1c2tnka4" class="animable"></path><path d="M276.46,296.66a3.55,3.55,0,0,1-2.55-1.11c-1.43-1.43-2.12-4-1.84-7,.45-4.7,3.14-8.6,6.14-8.87a3.51,3.51,0,0,1,2.86,1.09c1.43,1.44,2.12,4,1.84,7-.45,4.71-3.14,8.61-6.13,8.88Zm2.07-16h-.23c-2.45.22-4.84,3.88-5.23,8-.25,2.6.35,5,1.55,6.18a2.51,2.51,0,0,0,2.07.8c2.44-.22,4.84-3.87,5.23-8,.24-2.6-.35-5-1.56-6.18A2.52,2.52,0,0,0,278.53,280.68Z" style="fill: rgb(255, 255, 255); transform-origin: 277.49px 288.163px;" id="elrh30r9ysuh" class="animable"></path><path d="M293.56,244.91c-1.31,5.28-2.84,15,.67,18.5,0,0-4.4,6-13.9,7.76-7.16-3.38-2.53-7.76-2.53-7.76,6-1.41,6-5.78,5.23-9.89Z" style="fill: rgb(228, 137, 123); transform-origin: 285.279px 258.04px;" id="el03xdi5t0tcwj" class="animable"></path><path d="M289.27,248.42,283,253.51a16.41,16.41,0,0,1,.36,2.92c2.27-.32,5.49-2.8,5.85-5.16A8,8,0,0,0,289.27,248.42Z" style="fill: rgb(206, 111, 100); transform-origin: 286.185px 252.425px;" id="elmfwu0psx2ff" class="animable"></path><path d="M277.6,228.64c-3.64,1.51-6.09,11.48-1.66,13.77S284.48,225.79,277.6,228.64Z" style="fill: rgb(38, 50, 56); transform-origin: 277.413px 235.475px;" id="elsyk8lv33sr9" class="animable"></path><path d="M294.6,237c-.81,7.16-.92,11.37-4.73,15.05a9.27,9.27,0,0,1-15.73-4.9c-1.2-6.44.32-17.06,7.48-19.91A9.31,9.31,0,0,1,294.6,237Z" style="fill: rgb(228, 137, 123); transform-origin: 284.226px 240.631px;" id="el1i1c21qy8vo" class="animable"></path><path d="M289,221.28c3.92-2.47,9.91,0,8.7,3.37-1.94,5.45,3.05.22,3,6.67,0,4.21-4.75,14.19-7.75,13.93s-4.15-5.57-2.33-11.47c1.36-4.44-2.39-2.69-7.84-2.15-11.06,1.08-18.67-13.41-5.94-12.63,12.31.75,11-6,11-6s4.43,7.24-2.56,7.27S280.87,226.39,289,221.28Z" style="fill: rgb(38, 50, 56); transform-origin: 285.454px 229.127px;" id="elhuaz0q9rtu" class="animable"></path><path d="M297.43,244.84a7.29,7.29,0,0,1-4.41,3c-2.36.51-3.28-1.61-2.41-3.74.78-1.92,2.95-4.5,5.22-4.06S298.69,243,297.43,244.84Z" style="fill: rgb(228, 137, 123); transform-origin: 294.184px 243.954px;" id="elarrc8rfqxz" class="animable"></path><path d="M295.74,226.78a6.22,6.22,0,0,0,4.65-3.2S300.58,229.25,295.74,226.78Z" style="fill: rgb(38, 50, 56); transform-origin: 298.065px 225.492px;" id="elvbpckyfivvi" class="animable"></path><path d="M283.64,239c0,.58-.37,1.05-.75,1.05s-.66-.47-.63-1.05.36-1.06.74-1.06S283.67,238.37,283.64,239Z" style="fill: rgb(38, 50, 56); transform-origin: 282.95px 238.995px;" id="elleiwi8gkfk" class="animable"></path><path d="M277.05,239c0,.58-.37,1.05-.75,1.05s-.66-.47-.63-1.05.36-1.06.74-1.06S277.08,238.37,277.05,239Z" style="fill: rgb(38, 50, 56); transform-origin: 276.36px 238.995px;" id="ell98fxfxpybd" class="animable"></path><path d="M279.13,239.24a22.32,22.32,0,0,1-3.05,5,3.3,3.3,0,0,0,2.76.52Z" style="fill: rgb(222, 87, 83); transform-origin: 277.605px 242.053px;" id="elzll9q65epvb" class="animable"></path><path d="M280.47,246.36a.17.17,0,0,1-.17-.17.16.16,0,0,1,.17-.17,4.92,4.92,0,0,0,3.86-1.81.18.18,0,0,1,.24-.05.17.17,0,0,1,0,.24A5.14,5.14,0,0,1,280.47,246.36Z" style="fill: rgb(38, 50, 56); transform-origin: 282.46px 245.247px;" id="elx8wg1s8oulm" class="animable"></path><path d="M285.75,236.82a.35.35,0,0,1-.28-.14,2.61,2.61,0,0,0-2.12-1.14.32.32,0,0,1-.37-.31.35.35,0,0,1,.32-.37,3.24,3.24,0,0,1,2.73,1.42.35.35,0,0,1-.08.48A.36.36,0,0,1,285.75,236.82Z" style="fill: rgb(38, 50, 56); transform-origin: 284.536px 235.84px;" id="elpal45nrenk" class="animable"></path><path d="M274.3,236.69a.42.42,0,0,1-.16,0,.35.35,0,0,1-.14-.47,3.56,3.56,0,0,1,2.54-1.91.34.34,0,0,1,.38.29.35.35,0,0,1-.29.39h0a2.86,2.86,0,0,0-2,1.56A.35.35,0,0,1,274.3,236.69Z" style="fill: rgb(38, 50, 56); transform-origin: 275.441px 235.502px;" id="elmga1fmtmqc" class="animable"></path><path d="M306.41,267.77v.06s0,.05,0,.08a168.21,168.21,0,0,0-3.34,20c-4.21-5.93-5.45-12.13-4.71-16C299.17,267.63,303.88,267.51,306.41,267.77Z" style="fill: rgb(64, 123, 255); transform-origin: 302.284px 277.799px;" id="elj7zfmdujb6q" class="animable"></path><g id="ellej90vks9jd"><path d="M306.41,267.77v.06s0,.05,0,.08a168.21,168.21,0,0,0-3.34,20c-4.21-5.93-5.45-12.13-4.71-16C299.17,267.63,303.88,267.51,306.41,267.77Z" style="opacity: 0.1; transform-origin: 302.284px 277.799px;" class="animable"></path></g><path d="M300,265.67c5.28-4.38,24.53,5.95,24.53,5.95l-11.34,14.21s-2-.45-10-4.05C294.8,278,294.33,270.36,300,265.67Z" style="fill: rgb(64, 123, 255); transform-origin: 310.381px 275.209px;" id="elp09kvc8mvl" class="animable"></path></g><g id="freepik--Cup--inject-107" class="animable" style="transform-origin: 188.59px 341.94px;"><polygon points="195.17 332.67 193.75 353.21 183.42 353.21 183.14 349.14 182.28 336.74 182 332.67 195.17 332.67" style="fill: rgb(64, 123, 255); transform-origin: 188.585px 342.94px;" id="elw7xogy9guu" class="animable"></polygon><g id="elsep0fc5aue8"><polygon points="195.17 332.67 193.75 353.21 183.42 353.21 183.14 349.14 182.28 336.74 182 332.67 195.17 332.67" style="opacity: 0.2; transform-origin: 188.585px 342.94px;" class="animable"></polygon></g><rect x="180.88" y="332" width="15.42" height="1.33" style="fill: rgb(230, 230, 230); transform-origin: 188.59px 332.665px;" id="elm6rbb380u1h" class="animable"></rect><rect x="181.82" y="330.67" width="13.53" height="1.33" style="fill: rgb(245, 245, 245); transform-origin: 188.585px 331.335px;" id="el0mixlbgqcjud" class="animable"></rect><polygon points="188 336.74 188 349.14 183.01 349.14 182.16 336.74 188 336.74" style="fill: rgb(245, 245, 245); transform-origin: 185.08px 342.94px;" id="elwtns5ky3tg9" class="animable"></polygon></g><defs>     <filter id="active" height="200%">         <feMorphology in="SourceAlpha" result="DILATED" operator="dilate" radius="2"></feMorphology>                <feFlood flood-color="#32DFEC" flood-opacity="1" result="PINK"></feFlood>        <feComposite in="PINK" in2="DILATED" operator="in" result="OUTLINE"></feComposite>        <feMerge>            <feMergeNode in="OUTLINE"></feMergeNode>            <feMergeNode in="SourceGraphic"></feMergeNode>        </feMerge>    </filter>    <filter id="hover" height="200%">        <feMorphology in="SourceAlpha" result="DILATED" operator="dilate" radius="2"></feMorphology>                <feFlood flood-color="#ff0000" flood-opacity="0.5" result="PINK"></feFlood>        <feComposite in="PINK" in2="DILATED" operator="in" result="OUTLINE"></feComposite>        <feMerge>            <feMergeNode in="OUTLINE"></feMergeNode>            <feMergeNode in="SourceGraphic"></feMergeNode>        </feMerge>            <feColorMatrix type="matrix" values="0   0   0   0   0                0   1   0   0   0                0   0   0   0   0                0   0   0   1   0 "></feColorMatrix>    </filter></defs></svg>